<svg xmlns="http://www.w3.org/2000/svg" viewBox="0 0 32 32">
  <defs>
    <linearGradient id="brainGrad" x1="0%" y1="0%" x2="100%" y2="100%">
      <stop offset="0%" style="stop-color:#ff69b4;stop-opacity:1" />
      <stop offset="100%" style="stop-color:#ffb6c1;stop-opacity:1" />
    </linearGradient>
  </defs>
  
  <!-- Left hemisphere -->
  <path d="M8 16 Q8 8, 16 8 Q20 8, 22 12 Q24 16, 22 20 Q20 24, 16 24 Q12 24, 10 20 Q8 18, 8 16" 
        fill="url(#brainGrad)" stroke="#ff1493" stroke-width="1"/>
  
  <!-- Right hemisphere -->
  <path d="M24 16 Q24 8, 16 8 Q12 8, 10 12 Q8 16, 10 20 Q12 24, 16 24 Q20 24, 22 20 Q24 18, 24 16" 
        fill="url(#brainGrad)" stroke="#ff1493" stroke-width="1"/>
  
  <!-- Brain divisions -->
  <line x1="16" y1="8" x2="16" y2="24" stroke="#ff1493" stroke-width="1"/>
  <path d="M12 12 Q16 10, 20 12" fill="none" stroke="#ff1493" stroke-width="1"/>
  <path d="M12 16 Q16 14, 20 16" fill="none" stroke="#ff1493" stroke-width="1"/>
  <path d="M12 20 Q16 18, 20 20" fill="none" stroke="#ff1493" stroke-width="1"/>
</svg>
